<svg width="32" height="32" viewBox="0 0 32 32" fill="none" xmlns="http://www.w3.org/2000/svg">
<path fill-rule="evenodd" clip-rule="evenodd" d="M9.0566 1.50943C9.0566 1.10911 8.89757 0.725177 8.6145 0.442103C8.33143 0.159029 7.9475 0 7.54717 0C7.14684 0 6.76291 0.159029 6.47984 0.442103C6.19676 0.725177 6.03774 1.10911 6.03774 1.50943V4.22642H3.92453C2.88368 4.22642 1.88546 4.63989 1.14947 5.37588C0.413476 6.11187 0 7.11009 0 8.15094V28.0755C0 29.1163 0.413476 30.1145 1.14947 30.8505C1.88546 31.5865 2.88368 32 3.92453 32H28.0755C29.1163 32 30.1145 31.5865 30.8505 30.8505C31.5865 30.1145 32 29.1163 32 28.0755V8.15094C32 7.11009 31.5865 6.11187 30.8505 5.37588C30.1145 4.63989 29.1163 4.22642 28.0755 4.22642H25.9623V1.50943C25.9623 1.10911 25.8032 0.725177 25.5202 0.442103C25.2371 0.159029 24.8532 0 24.4528 0C24.0525 0 23.6686 0.159029 23.3855 0.442103C23.1024 0.725177 22.9434 1.10911 22.9434 1.50943V4.22642H9.0566V1.50943ZM22.9434 8.75472V7.24528H9.0566V8.75472C9.0566 9.15504 8.89757 9.53897 8.6145 9.82205C8.33143 10.1051 7.9475 10.2642 7.54717 10.2642C7.14684 10.2642 6.76291 10.1051 6.47984 9.82205C6.19676 9.53897 6.03774 9.15504 6.03774 8.75472V7.24528H3.92453C3.68433 7.24528 3.45397 7.3407 3.28413 7.51054C3.11429 7.68039 3.01887 7.91075 3.01887 8.15094V28.0755C3.01887 28.3157 3.11429 28.546 3.28413 28.7159C3.45397 28.8857 3.68433 28.9811 3.92453 28.9811H28.0755C28.3157 28.9811 28.546 28.8857 28.7159 28.7159C28.8857 28.546 28.9811 28.3157 28.9811 28.0755V8.15094C28.9811 7.91075 28.8857 7.68039 28.7159 7.51054C28.546 7.3407 28.3157 7.24528 28.0755 7.24528H25.9623V8.75472C25.9623 9.15504 25.8032 9.53897 25.5202 9.82205C25.2371 10.1051 24.8532 10.2642 24.4528 10.2642C24.0525 10.2642 23.6686 10.1051 23.3855 9.82205C23.1024 9.53897 22.9434 9.15504 22.9434 8.75472ZM13.1792 12.9546C13.1792 12.4691 13.5728 12.0755 14.0583 12.0755H17.9417C18.4272 12.0755 18.8208 12.4691 18.8208 12.9546V16.198H22.0643C22.5497 16.198 22.9434 16.5917 22.9434 17.0771V20.9606C22.9434 21.1938 22.8508 21.4174 22.6859 21.5822C22.5211 21.7471 22.2975 21.8397 22.0643 21.8397H18.8208V25.0832C18.8208 25.1986 18.7981 25.3129 18.7539 25.4196C18.7097 25.5262 18.645 25.6232 18.5634 25.7048C18.4817 25.7864 18.3848 25.8512 18.2782 25.8953C18.1715 25.9395 18.0572 25.9623 17.9417 25.9623H14.0583C13.9428 25.9623 13.8285 25.9395 13.7218 25.8953C13.6152 25.8512 13.5183 25.7864 13.4367 25.7048C13.355 25.6232 13.2903 25.5262 13.2461 25.4196C13.2019 25.3129 13.1792 25.1986 13.1792 25.0832V21.8397H9.9357C9.70255 21.8397 9.47895 21.7471 9.31409 21.5822C9.14922 21.4174 9.0566 21.1938 9.0566 20.9606V17.0771C9.0566 16.5917 9.45026 16.198 9.9357 16.198H13.1792V12.9546Z" fill="black"/>
</svg>
