<svg width="32" height="32" viewBox="0 0 32 32" fill="none" xmlns="http://www.w3.org/2000/svg">
<path d="M16 32C11.9111 32 8.34844 30.6447 5.312 27.9342C2.27556 25.2237 0.534518 21.8382 0.0888888 17.7778H3.73333C4.14815 20.8593 5.51881 23.4074 7.84533 25.4222C10.1719 27.437 12.8901 28.4444 16 28.4444C19.4667 28.4444 22.4077 27.2373 24.8231 24.8231C27.2385 22.4089 28.4456 19.4678 28.4444 16C28.4433 12.5321 27.2361 9.5917 24.8231 7.17867C22.4101 4.76563 19.469 3.55792 16 3.55555C13.9556 3.55555 12.0444 4.02963 10.2667 4.97778C8.48889 5.92592 6.99259 7.22963 5.77778 8.88889H10.6667V12.4444H0V1.77778H3.55556V5.95555C5.06667 4.05926 6.91141 2.59259 9.08978 1.55556C11.2681 0.518518 13.5716 0 16 0C18.2222 0 20.304 0.422518 22.2453 1.26756C24.1867 2.11259 25.8756 3.25274 27.312 4.688C28.7484 6.12326 29.8892 7.81215 30.7342 9.75467C31.5793 11.6972 32.0012 13.779 32 16C31.9988 18.221 31.5769 20.3028 30.7342 22.2453C29.8916 24.1878 28.7508 25.8767 27.312 27.312C25.8732 28.7473 24.1843 29.888 22.2453 30.7342C20.3064 31.5804 18.2246 32.0024 16 32ZM20.9778 23.4667L14.2222 16.7111V7.11111H17.7778V15.2889L23.4667 20.9778L20.9778 23.4667Z" fill="black"/>
</svg>
